# xmcd CD database file
#
# Track frame offsets:
#	150
#	16418
#	32746
#	48436
#	61186
#	74480
#	99693
#	118114
#	134024
#	149442
#	166299
#	180728
#	201127
#	216883
#
# Disc length: 3081 seconds
#
# Revision: 0
# Processed by: cddbd v1.5.2PL0 Copyright (c) Steve Scherf et al.
# Submitted via: CDex 1.70beta2
#
DISCID=d70c070e
DTITLE=Steve Lalor - Airs on the Acoustic Guitar
DYEAR=2002
DGENRE=New Age
TTITLE0=The Wedding
TTITLE1=El Alamein
TTITLE2=The West Wind
TTITLE3=Dark Island
TTITLE4=Skye Boat Song
TTITLE5=Sheep May Safely Graze
TTITLE6=Midnight Walker
TTITLE7=March of the Kind of Laoise
TTITLE8=Tribute to Pedar OConnell
TTITLE9=One of Us
TTITLE10=Summer State of Mind
TTITLE11=Mingelay
TTITLE12=Sheebeg and Sheemore
TTITLE13=Red River Valley
EXTD=YEAR: 2002
EXTT0=
EXTT1=
EXTT2=
EXTT3=
EXTT4=
EXTT5=
EXTT6=
EXTT7=
EXTT8=
EXTT9=
EXTT10=
EXTT11=
EXTT12=
EXTT13=
PLAYORDER=
